<mxfile host="app.diagrams.net" modified="2023-07-25T20:12:06.217Z" agent="Mozilla/5.0 (Windows NT 10.0; Win64; x64) AppleWebKit/537.36 (KHTML, like Gecko) Chrome/114.0.0.0 Safari/537.36" version="21.2.7" etag="l7YM5wowdwVyK_NuTOVn" type="github">
  <diagram name="Page-1" id="U1jJ64q0Rm0-_pvLfdFq">
    <mxGraphModel>
      <root>
        <mxCell id="0" />
        <mxCell id="1" parent="0" />
      </root>
    </mxGraphModel>
  </diagram>
</mxfile>
